<svg id="图层_1" data-name="图层 1" xmlns="http://www.w3.org/2000/svg" viewBox="0 0 1211.31 885.08"><defs><style>.cls-1,.cls-10,.cls-12,.cls-14,.cls-17,.cls-2,.cls-20,.cls-23,.cls-5,.cls-6,.cls-8,.cls-9{fill:none;stroke-miterlimit:10;}.cls-1,.cls-2,.cls-20,.cls-23,.cls-8{stroke:#839390;}.cls-1,.cls-10,.cls-12,.cls-14,.cls-2,.cls-20,.cls-23,.cls-8,.cls-9{stroke-linecap:square;}.cls-1,.cls-10,.cls-12,.cls-14,.cls-2,.cls-20,.cls-23,.cls-5,.cls-6,.cls-8,.cls-9{stroke-width:2px;}.cls-2{stroke-dasharray:2.03 6.08;}.cls-3{fill:#839390;}.cls-15,.cls-4{font-size:24px;}.cls-4{fill:#e05024;}.cls-13,.cls-15,.cls-19,.cls-21,.cls-25,.cls-28,.cls-4,.cls-7{font-family:Verdana;}.cls-5{stroke:#e05024;}.cls-10,.cls-12,.cls-14,.cls-6,.cls-9{stroke:#b9c9c5;}.cls-6{stroke-dasharray:12;}.cls-19,.cls-7{font-size:16px;}.cls-21,.cls-7{fill:#8eafa9;}.cls-8{stroke-dasharray:2.13 6.39;}.cls-10{stroke-dasharray:1.98 5.94;}.cls-11,.cls-13{fill:#b9c9c5;}.cls-12,.cls-23{stroke-dasharray:2 5;}.cls-13,.cls-21{font-size:14px;}.cls-14{stroke-dasharray:2.05 6.16;}.cls-15{fill:#3279e0;}.cls-16{letter-spacing:-0.01em;}.cls-17{stroke:#3279e0;}.cls-18{fill:#ffc84d;}.cls-19,.cls-25,.cls-28{fill:#fff;}.cls-20{stroke-dasharray:2.03 6.1;}.cls-22{letter-spacing:-0.06em;}.cls-24{fill:#27b79b;}.cls-25{font-size:20.13px;}.cls-26{letter-spacing:-0.01em;}.cls-27{letter-spacing:0em;}.cls-28{font-size:20px;}.cls-29{letter-spacing:-0.02em;}.cls-30{letter-spacing:-0.02em;}.cls-31{letter-spacing:-0.01em;}</style></defs><title>lifecycle</title><line class="cls-1" x1="239.38" y1="302.5" x2="240.38" y2="302.5"/><line class="cls-2" x1="246.47" y1="302.5" x2="381.34" y2="302.5"/><line class="cls-1" x1="384.38" y1="302.5" x2="385.38" y2="302.5"/><polygon class="cls-3" points="218.38 302.33 237.38 293.67 237.38 310.99 218.38 302.33"/><text class="cls-4" transform="translate(20.38 309.05)">beforeMounte</text><rect class="cls-5" x="1" y="272.14" width="204.47" height="60.38" rx="19.89"/><text class="cls-4" transform="translate(30.41 519.81)">afterMounte</text><rect class="cls-5" x="1.06" y="482.89" width="204.47" height="60.38" rx="19.89"/><line class="cls-1" x1="239.38" y1="513.25" x2="240.38" y2="513.25"/><line class="cls-2" x1="246.47" y1="513.25" x2="381.34" y2="513.25"/><line class="cls-1" x1="384.38" y1="513.25" x2="385.38" y2="513.25"/><polygon class="cls-3" points="218.38 513.08 237.38 504.42 237.38 521.74 218.38 513.08"/><circle class="cls-6" cx="566.64" cy="656.83" r="108.5"/><text class="cls-7" transform="matrix(0.89, 0, 0, 1, 495.95, 661.26)">When data changes</text><text class="cls-4" transform="matrix(1, 0, 0, 1, 740.46, 490.86)">beforeUpdate</text><rect class="cls-5" x="719.45" y="454.01" width="204.47" height="60.38" rx="19.89"/><text class="cls-4" transform="matrix(1, 0, 0, 1, 745.82, 830.37)">afterUpdate</text><rect class="cls-5" x="714.84" y="793.51" width="204.47" height="60.38" rx="19.89"/><line class="cls-1" x1="813.1" y1="578.93" x2="813.11" y2="577.93"/><line class="cls-8" x1="813.14" y1="571.55" x2="813.36" y2="523.64"/><line class="cls-1" x1="813.38" y1="520.44" x2="813.38" y2="519.44"/><polygon class="cls-3" points="812.92 599.93 804.27 580.93 821.59 580.94 812.92 599.93"/><line class="cls-9" x1="689.36" y1="533.49" x2="688.57" y2="534.1"/><line class="cls-10" x1="683.9" y1="537.78" x2="648.84" y2="565.32"/><line class="cls-9" x1="646.5" y1="567.16" x2="645.71" y2="567.77"/><polygon class="cls-11" points="705.9 520.55 696.42 539.15 685.64 525.6 705.9 520.55"/><line class="cls-9" x1="687.17" y1="780.85" x2="686.38" y2="780.23"/><line class="cls-10" x1="681.72" y1="776.55" x2="646.7" y2="748.96"/><line class="cls-9" x1="644.36" y1="747.12" x2="643.58" y2="746.5"/><polygon class="cls-11" points="703.69 793.82 694.24 775.2 683.44 788.74 703.69 793.82"/><line class="cls-12" x1="917.38" y1="654.62" x2="960.38" y2="654.63"/><text class="cls-13" transform="matrix(0.89, 0, 0, 1, 968.98, 658.54)">No</text><line class="cls-9" x1="1032.38" y1="654.45" x2="1031.38" y2="654.45"/><line class="cls-14" x1="1025.22" y1="654.41" x2="995.46" y2="654.24"/><line class="cls-9" x1="992.38" y1="654.23" x2="991.38" y2="654.22"/><polygon class="cls-11" points="1053.38 654.64 1034.37 663.28 1034.39 645.96 1053.38 654.64"/><text class="cls-15" transform="matrix(1, 0, 0, 1, 1078.39, 661.63)"><tspan class="cls-16">k</tspan><tspan x="13.97" y="0">eep dom</tspan></text><rect class="cls-17" x="1064.8" y="627.95" width="146" height="54" rx="12.3"/><path class="cls-18" d="M965.11,761.78l-94.87,49-94.76-49.09,94.86-49Z" transform="translate(-57.62 -107.78)"/><text class="cls-19" transform="matrix(1, 0, 0, 1, 737.15, 658.38)">Whether to update</text><line class="cls-1" x1="813.25" y1="767.46" x2="813.25" y2="766.46"/><line class="cls-20" x1="813.31" y1="760.36" x2="813.35" y2="755.27"/><line class="cls-1" x1="813.37" y1="752.22" x2="813.38" y2="751.22"/><polygon class="cls-3" points="813.06 788.46 804.41 769.45 821.74 769.46 813.06 788.46"/><text class="cls-21" transform="matrix(0.89, 0, 0, 1, 802.65, 745.61)"><tspan class="cls-22">Y</tspan><tspan x="7.72" y="0">es</tspan></text><line class="cls-23" x1="813.38" y1="732.22" x2="813.26" y2="709.97"/><rect class="cls-24" x="319.92" width="212.61" height="51.58" rx="14"/><text class="cls-25" transform="translate(351.22 31.43)">createInstance</text><rect class="cls-24" x="319.45" y="182.87" width="212.61" height="51.58" rx="14"/><text class="cls-25" transform="translate(365.5 214.3)">Init Context</text><rect class="cls-24" x="320.39" y="833.5" width="212.61" height="51.58" rx="14"/><text class="cls-25" transform="translate(376.14 864.93)">Destor<tspan class="cls-26" x="66.73" y="0">y</tspan><tspan class="cls-27" x="78.46" y="0">ed</tspan></text><rect class="cls-24" x="323.67" y="365.74" width="212.61" height="78.93" rx="14"/><text class="cls-28" transform="translate(394.49 395.86)"><tspan class="cls-29">R</tspan><tspan x="13.42" y="0">ender</tspan></text><text class="cls-19" transform="translate(366.48 426.97)">t<tspan class="cls-30" x="6.3" y="0">r</tspan><tspan x="12.85" y="0">ack &amp; lifec</tspan><tspan class="cls-31" x="95.41" y="0">y</tspan><tspan x="104.74" y="0">cle</tspan></text><circle class="cls-24" cx="427.16" cy="639.08" r="63.13"/><text class="cls-25" transform="translate(391.25 644.72)">Update</text><line class="cls-1" x1="429.68" y1="148.98" x2="429.68" y2="65.48"/><polygon class="cls-3" points="429.51 168.97 420.85 149.97 438.17 149.97 429.51 168.97"/><line class="cls-1" x1="429.21" y1="331.85" x2="429.21" y2="248.35"/><polygon class="cls-3" points="429.04 351.85 420.38 332.85 437.7 332.85 429.04 351.85"/><line class="cls-1" x1="428.74" y1="542.06" x2="428.74" y2="458.56"/><polygon class="cls-3" points="428.57 562.06 419.91 543.06 437.23 543.06 428.57 562.06"/><line class="cls-1" x1="428.27" y1="799.61" x2="428.27" y2="716.11"/><polygon class="cls-3" points="428.1 819.61 419.44 800.61 436.76 800.61 428.1 819.61"/></svg>